<?xml version="1.0" encoding="utf-8"?>
<!DOCTYPE svg PUBLIC "-//W3C//DTD SVG 1.1//EN" "http://www.w3.org/Graphics/SVG/1.1/DTD/svg11.dtd">
<svg style="width:308px;height:308px;" version="1.1" id="图形" xmlns="http://www.w3.org/2000/svg" xmlns:xlink="http://www.w3.org/1999/xlink" x="0px" y="0px" width="1024px" height="1024px" viewBox="0 0 1024 1024" enable-background="new 0 0 1024 1024" xml:space="preserve">
  <path class="svgpath" data-index="path_0" fill="#713b32" d="M881.51001 573.890924c-12.44199-31.882396-32.404792-62.347695-59.332873-90.54733-38.594274-40.417462-80.811533-64.650396-93.371777-71.388264 20.666477-24.488284 31.577665-51.156467 37.133645-69.548832 6.285645-20.804223 7.257665-35.465746 7.296-36.080406l0.006497-0.202071c0-38.622213-10.049624-73.535025-29.869482-103.767716-15.826518-24.14197-37.867858-45.333442-65.51131-62.986396-41.459655-26.475858-83.461848-37.001096-93.001421-39.155655-1.194883-4.010234-4.563168-13.185299-12.396508-22.388305-9.389482-11.031391-27.232162-24.180954-58.913137-24.180954-31.672528 0-49.623716 13.143066-59.105462 24.168609-7.985381 9.284873-11.423188 18.541157-12.62132 22.487716-39.594883 10.416081-73.379736 23.920406-100.437766 40.149117-24.553259 14.726497-44.336731 32.164386-58.80203 51.830254-29.38932 39.956142-32.788142 83.510579-32.788142 112.796589 0 37.079716 13.572548 64.535391 24.958701 81.038944 8.332995 12.077482 16.621157 20.129137 21.296731 24.210193-44.636914 25.080853-81.171492 55.340832-108.648609 89.996995-22.709929 28.642761-39.309645 60.323736-49.339127 94.163817-16.974619 57.276426-9.36934 100.408528-8.926213 102.795046 0.183228 1.131858 2.76467 16.469117 11.507005 39.390863 8.185503 21.462416 23.562396 53.848365 50.337137 86.249259 30.089096 36.412426 68.136284 65.420995 113.083777 86.218721 56.060102 25.939817 123.053482 39.094579 199.119269 39.097827 0.015594 0 0.030538 0 0.046132 0 3.457949 0 6.850274-0.02599 10.36865-0.080569 78.225543-1.201381 146.821848-14.979249 203.883858-40.951553 45.763574-20.830213 84.246091-49.498964 114.378721-85.210315 26.826071-31.792731 41.922274-63.395086 49.862822-84.307817 8.42331-22.186234 10.763046-37.04398 10.95602-38.331777C900.844508 656.015594 897.085726 613.804832 881.51001 573.890924zM324.392934 422.701482l4.481949-2.45799-4.128487-3.014173c-0.425584-0.310579-42.558376-31.773888-42.558376-92.566091 0-25.487594 2.934904-63.361949 28.308792-97.858924 12.531005-17.036345 29.731736-32.17998 51.12398-45.010518 24.219289-14.525726 54.637157-26.59866 90.408934-35.881584l1.918701-0.505503 0.43598-1.931695c0.022091-0.098112 2.310497-9.920325 10.696122-19.556061 11.18603-12.853929 27.441381-19.371533 48.314477-19.371533 20.865299 0 37.055675 6.513056 48.120853 19.357888 8.29466 9.628589 10.494701 19.444954 10.514843 19.535269l0.446376 2.102579 2.109076 0.413239c0.418437 0.081868 42.286782 8.491533 83.534619 34.882274 24.097137 15.417178 43.278944 33.873868 57.014579 54.858071 17.106518 26.136041 25.789726 56.34599 25.809218 89.798173-0.180629 2.452792-4.37799 52.885442-40.880731 94.091046l2.209137 2.613279-1.204629 2.459289c0.448975 0.220264 45.405563 22.489015 85.871107 64.964873 23.605929 24.779371 41.082152 51.495635 51.94201 79.406782 13.536812 34.78936 16.784893 71.596832 9.653929 109.401015l-0.022741 0.135797c-0.07732 0.532142-8.252426 53.891249-53.355208 107.344569-26.524589 31.435371-60.432244 56.686457-100.780183 75.051533-50.576893 23.020508-111.485401 35.235086-181.032934 36.302619-3.095391 0.047431-6.216772 0.071472-9.277726 0.071472-67.473543 0-126.832406-11.612914-176.426883-34.514518-39.594234-18.284508-73.105543-43.77535-99.602843-75.765604-45.178802-54.544244-54.435086-109.866883-54.523452-110.417218l-0.015594-0.090315c-0.072772-0.388548-7.086132-39.433096 7.973036-89.98335 8.832-29.646619 23.42335-57.411574 43.369909-82.524264C249.810518 472.60264 283.304934 445.23598 324.392934 422.701482z" />
<path class="svgpath" data-index="path_1" fill="#713b32" d="M492.469929 652.681746c0.138396 6.568284 0.30798 14.937665 0.43598 21.42668l0.00065 0.029888c0 0.002599-0.00065 0.005198-0.00065 0.007797 0 0.00065 0 0.001299 0 0.001949l0 0.001949c0 0.001299 0 0.003898 0 0.005198 0 0.001299 0 0.003249 0 0.004548l0.00065 0.020142 0 0.00065c0 0.001949 0 0.003898 0 0.005848 0.201421 9.01003 9.089949 16.118904 19.852345 15.878497 10.744853-0.239756 19.296812-7.714437 19.125279-16.703025 0-0.004548 0-0.008447 0-0.012345 0-0.001949 0-0.003249 0-0.005198l-0.441178-22.357117c25.126985-3.288365 45.740183-10.85531 61.833746-22.708629 22.270051-16.400893 33.40865-39.954843 33.40865-70.654051 0-20.464406-6.850274-38.900305-20.541726-55.305096-13.69535-16.400893-37.697624-32.805036-72.008772-49.209827-31.151431-15.349604-51.393624-27.461523-60.72268-36.342904-9.332305-8.877482-13.995533-20.390335-13.995533-34.537259 0-15.94997 6.73332-28.403655 20.203208-37.359107 13.46664-8.951553 30.886985-13.430904 52.257137-13.430904 32.202721 0 58.838416 7.301198 79.909685 21.895797l0-49.209827c-15.702416-8.14132-40.046457-12.350376-73.029523-12.625868 0.024041-5.405239 0.052629-11.29064 0.078619-16.131249l0-0.029888c0-0.002599 0.00065-0.005198 0.00065-0.007797 0-0.00065 0-0.00065 0-0.001299 0 0 0-0.00065 0-0.00065l0-0.001949c0-0.001299 0-0.003898 0-0.005198 0-0.00065 0-0.00065 0-0.001299 0-0.001299 0-0.002599 0-0.003249l0-0.020142 0-0.00065c0-0.001949 0-0.003898 0-0.005848 0.024041-9.01198-8.683208-16.341766-19.448203-16.371005-10.747452-0.029239-19.483939 7.229076-19.537868 16.218964 0 0.00065 0 0.001299 0 0.001949 0 0.003898 0 0.007147 0 0.010396 0 0.001949 0 0.003249 0 0.005198l-0.103959 19.548914c-20.116142 3.893929-37.700223 11.319228-52.745096 22.286944-23.328487 17.007756-34.988832 40.032812-34.988832 69.074518 0 19.265624 5.565726 36.382538 16.704325 51.35464 11.134701 14.97665 34.233827 31.190416 69.29998 48.645848 25.282924 12.49332 42.512244 21.748305 51.693807 27.765604 9.176365 6.020548 16.400244 12.944244 21.670335 20.767188 5.264893 7.826193 7.900914 16.630254 7.900914 26.410883 0 34.914761-24.531817 52.370193-73.589604 52.370193-16.104609 0-33.108467-3.007675-51.015472-9.028873-17.910254-6.017299-32.20597-13.692751-42.889096-23.025056l-0.00065 0 0 51.466396c8.426558 5.721665 21.857462 10.497299 40.29336 14.334701C467.057706 650.245848 480.520447 652.096975 492.469929 652.681746z" />

</svg>
